<?xml version="1.0" encoding="UTF-8"?>
<svg version="1.1" xmlns="http://www.w3.org/2000/svg" width="192" height="192">
<path d="M0 0 C3.23031588 -0.35892399 4.5673697 -0.33374337 7.1875 1.6875 C9.07548263 4.09630543 9.91594894 6.15436597 11 9 C11.70125 10.03125 12.4025 11.0625 13.125 12.125 C15 15 15 15 15 18 C15.99 18.33 16.98 18.66 18 19 C19.4375 20.78515625 19.4375 20.78515625 21 23.0625 C24.52290199 27.76969671 28.52126248 30.87484556 33.3515625 34.17578125 C34.22554688 34.77777344 35.09953125 35.37976563 36 36 C36.93585938 36.61230469 37.87171875 37.22460938 38.8359375 37.85546875 C41 40 41 40 41.6015625 42.82421875 C40.82568706 46.92023649 38.87852343 49.596035 36.375 52.8125 C35.44847998 54.05804454 34.5226962 55.3041371 33.59765625 56.55078125 C33.14793457 57.14713379 32.69821289 57.74348633 32.23486328 58.35791016 C27.14096911 65.13164131 23.29998656 72.20495827 19.7109375 79.86328125 C18.01088032 82.98005274 16.89010935 84.94702577 14 87 C11.29179037 87.37962762 9.06827853 87.52308081 6.375 87.4375 C5.66730469 87.4271875 4.95960937 87.416875 4.23046875 87.40625 C-1.50275959 87.22871834 -6.66442856 86.15475001 -12 84 C-12.94970406 75.92751552 -9.62496322 70.07730915 -6 63 C-6.99 63 -7.98 63 -9 63 C-9.33 63.99 -9.66 64.98 -10 66 C-10.66 66 -11.32 66 -12 66 C-12.33 66.99 -12.66 67.98 -13 69 C-16.3799713 72.31543724 -19.61018921 74.76399439 -24.3125 75.5625 C-27.39915893 74.91645511 -28.18846056 74.53826165 -30 72 C-30.29296875 68.86328125 -30.29296875 68.86328125 -30.1875 65.3125 C-30.16042969 64.13300781 -30.13335937 62.95351562 -30.10546875 61.73828125 C-30.07066406 60.83464844 -30.03585938 59.93101562 -30 59 C-32.97 58.34 -35.94 57.68 -39 57 C-41.64513903 48.40329816 -44.89535798 37.36101373 -40.96875 28.734375 C-37.82884993 24.72228047 -33.66700584 22.41424371 -29.1796875 20.1328125 C-27.19902348 19.10343514 -25.44058427 17.97918433 -23.625 16.6875 C-21 15 -21 15 -18 15 C-18 14.34 -18 13.68 -18 13 C-16.27734375 11.66796875 -16.27734375 11.66796875 -13.9375 10.1875 C-10.90994064 8.2439406 -7.95380091 6.26602663 -5.0625 4.125 C-2 2 -2 2 0 2 C0 1.34 0 0.68 0 0 Z " fill="#F3E5C0" transform="translate(51,96)"/>
<path d="M0 0 C10.61098821 6.81623534 17.63501488 15.108532 20.6875 27.375 C22.80755913 37.31347824 22.02688322 45.1973415 19 55 C16.56073259 57.43926741 15.79830814 57.32240519 12.4375 57.375 C6.93898521 57.29496339 2.78419644 55.58855073 -2 53 C-0.66937406 49.00812219 1.00640811 46.90004215 4 44 C6.73466072 39.53210361 6.43019295 35.08785898 6 30 C5.08742694 27.21433941 5.08742694 27.21433941 4 25 C4 23.68 4 22.36 4 21 C3.34 21 2.68 21 2 21 C-1 17.53846154 -1 17.53846154 -1 15 C-1.55816406 14.73316406 -2.11632812 14.46632813 -2.69140625 14.19140625 C-6.07544723 12.44498916 -9.24748985 10.3736888 -12.46484375 8.33984375 C-17.78044945 5.53051747 -23.29518663 5.68244457 -29.1875 6.1875 C-31.99836344 7.44754223 -33.27819318 9.50634874 -35 12 C-37.6132014 19.8396042 -35.69336806 25.91185554 -32.4453125 33.1875 C-30.60637031 36.7659821 -28.43252889 39.80296202 -26 43 C-26 43.66 -26 44.32 -26 45 C-25.01 45.33 -24.02 45.66 -23 46 C-23 46.66 -23 47.32 -23 48 C-22.41734375 48.27328125 -21.8346875 48.5465625 -21.234375 48.828125 C-19.0483043 49.97466558 -17.22752827 51.27871897 -15.25 52.75 C-4.2660774 60.12055363 9.26084163 63.12013707 22 66 C22.22128659 69.24553658 22.32030504 71.39429495 20.78125 74.3046875 C18.64427683 76.33856109 17.39558994 76.6831405 14.5 77.125 C13.613125 77.27324219 12.72625 77.42148438 11.8125 77.57421875 C10.884375 77.71472656 9.95625 77.85523437 9 78 C-2.82644835 79.87079534 -2.82644835 79.87079534 -14 84 C-25.50960832 85.17444983 -34.91276142 77.05815905 -44 71 C-44 70.34 -44 69.68 -44 69 C-45.485 68.505 -45.485 68.505 -47 68 C-47 67.34 -47 66.68 -47 66 C-48.485 65.505 -48.485 65.505 -50 65 C-50 64.34 -50 63.68 -50 63 C-50.99 62.67 -51.98 62.34 -53 62 C-53 61.34 -53 60.68 -53 60 C-53.99 59.67 -54.98 59.34 -56 59 C-58.2265625 56.59375 -58.2265625 56.59375 -60.625 53.5 C-61.42164062 52.4996875 -62.21828125 51.499375 -63.0390625 50.46875 C-65.43148836 46.23672976 -66.45693202 42.86485881 -66 38 C-64.88384501 35.06341589 -63.26026013 32.67005785 -61.4375 30.125 C-60.50291787 28.73069921 -59.57062615 27.33486048 -58.640625 25.9375 C-58.18494141 25.26589844 -57.72925781 24.59429687 -57.25976562 23.90234375 C-52.48895783 16.69805415 -48.80840824 8.74100371 -45 1 C-44.33424548 -0.33378902 -43.66788072 -1.66727438 -43 -3 C-42.34 -3 -41.68 -3 -41 -3 C-40.67 -3.99 -40.34 -4.98 -40 -6 C-27.67688936 -10.10770355 -11.24482898 -5.26976601 0 0 Z " fill="#F3E5C0" transform="translate(161,15)"/>
<path d="M0 0 C2.42349912 2.40765926 4.33537662 5.01831197 6 8 C6 8.66 6 9.32 6 10 C6.99 10.33 7.98 10.66 9 11 C10.24456086 12.47450282 11.42350814 14.00500591 12.5625 15.5625 C16.24370326 20.3405236 20.24782372 23.84478611 25.09375 27.40625 C25.7228125 27.9321875 26.351875 28.458125 27 29 C27 29.66 27 30.32 27 31 C27.8353125 31.1546875 27.8353125 31.1546875 28.6875 31.3125 C31.4769101 32.14178408 33.6139064 33.34299056 36 35 C36 35.66 36 36.32 36 37 C36.99 37 37.98 37 39 37 C40.8125 39.1875 40.8125 39.1875 42 42 C41.25 44.6875 41.25 44.6875 40 47 C39.505 47.99 39.505 47.99 39 49 C37.29296875 50 37.29296875 50 35.1875 51 C34.15689453 51.495 34.15689453 51.495 33.10546875 52 C31.68410031 52.67508408 30.24828649 53.32044626 28.80078125 53.9375 C26.65627385 54.93723038 26.65627385 54.93723038 26 58 C25.34 58 24.68 58 24 58 C23.72285156 58.57363281 23.44570312 59.14726563 23.16015625 59.73828125 C18.30148541 69.21023551 18.30148541 69.21023551 13.74609375 70.7734375 C9.89658952 71.24273456 6.73318801 71.07265809 3 70 C3 69.34 3 68.68 3 68 C2.2575 67.731875 1.515 67.46375 0.75 67.1875 C-1.89061949 66.04723249 -3.85552844 64.90619694 -6 63 C-6 62.34 -6 61.68 -6 61 C-6.61875 60.690625 -7.2375 60.38125 -7.875 60.0625 C-9.25 59.375 -10.625 58.6875 -12 58 C-12 57.01 -12 56.02 -12 55 C-13.485 54.505 -13.485 54.505 -15 54 C-19.07230696 49.63840347 -22.05577484 44.40328476 -24.83203125 39.15625 C-25.95174879 37.02028844 -25.95174879 37.02028844 -27.19921875 35.15625 C-30.23370599 30.47142759 -30.54099772 27.40997716 -30 22 C-28 19 -28 19 -25.1640625 18.4140625 C-22 19 -22 19 -19.5859375 21.7734375 C-18.82793583 22.96079677 -18.09146605 24.16212533 -17.375 25.375 C-14.23535777 30.8218068 -14.23535777 30.8218068 -9 34 C-9.49804861 29.2229422 -10.77521585 26.4421743 -13.5625 22.5625 C-15.62933545 19.38077405 -16.96628321 17.12812379 -17.9375 13.4375 C-16.44648101 7.97043037 -12.86924345 4.05571301 -9 0 C-5.64737261 -1.6763137 -3.554469 -1.00709955 0 0 Z M-3 40 C-2.67 41.65 -2.34 43.3 -2 45 C-0.68 44.67 0.64 44.34 2 44 C2 42.68 2 41.36 2 40 C0.35 40 -1.3 40 -3 40 Z " fill="#F3E5C0" transform="translate(90,62)"/>
<path d="M0 0 C1.62166314 0.93519224 3.18105181 1.97706833 4.72265625 3.0390625 C4.72265625 3.6990625 4.72265625 4.3590625 4.72265625 5.0390625 C5.71265625 5.0390625 6.70265625 5.0390625 7.72265625 5.0390625 C9.41015625 6.3515625 9.41015625 6.3515625 10.72265625 8.0390625 C10.72265625 9.0290625 10.72265625 10.0190625 10.72265625 11.0390625 C11.38265625 11.0390625 12.04265625 11.0390625 12.72265625 11.0390625 C15.35795037 18.12141544 15.35795037 18.12141544 14.72265625 22.0390625 C13.16015625 23.9140625 13.16015625 23.9140625 10.72265625 25.0390625 C5.77691868 24.8592175 2.85568703 23.58246606 -1.27734375 21.0390625 C-4.47129401 20.32505018 -4.47129401 20.32505018 -7.27734375 20.0390625 C-7.60734375 21.0290625 -7.93734375 22.0190625 -8.27734375 23.0390625 C-9.92734375 23.0390625 -11.57734375 23.0390625 -13.27734375 23.0390625 C-16.69136647 15.83303598 -19.17009388 10.07381368 -18.27734375 2.0390625 C-14.34233992 -3.86344325 -6.01905534 -2.53977292 0 0 Z " fill="#F3E5BF" transform="translate(148.27734375,27.9609375)"/>
</svg>
